HIERARCHY
ROOT hip
{
  OFFSET 0.0 0.0 0.0
  CHANNELS 6 Xposition Yposition Zposition Zrotation Yrotation Xrotation
  JOINT torso
  {
    OFFSET 0.0 0.0 0.0
    CHANNELS 3 Zrotation Xrotation Yrotation
    JOINT neck
    {
      OFFSET -20.11218299999996 327.95800799999995 66.30578600000035
      CHANNELS 3 Zrotation Xrotation Yrotation
      JOINT head
      {
        OFFSET 18.28939800000012 288.83178699999996 217.81652800000006
        CHANNELS 3 Zrotation Xrotation Yrotation
        End Site
        {
          OFFSET 0.0 0.0 0.0
        }
      }
    }
    JOINT left_collar
    {
      OFFSET -20.11218299999996 327.95800799999995 66.30578600000035
      CHANNELS 3 Zrotation Xrotation Yrotation
      JOINT left_upper_arm
      {
        OFFSET -127.08163400000001 -16.17407199999991 15.44799799999987
        CHANNELS 3 Zrotation Xrotation Yrotation
        JOINT left_forearm
        {
          OFFSET -234.267792 45.78796399999999 109.31286600000021
          CHANNELS 3 Zrotation Xrotation Yrotation
          JOINT left_hand
          {
            OFFSET -259.114014 -33.25433399999997 16.18847699999992
            CHANNELS 3 Zrotation Xrotation Yrotation
            End Site
            {
              OFFSET 0.0 0.0 0.0
            }
          }
        }
      }
    }
    JOINT right_collar
    {
      OFFSET -20.11218299999996 327.95800799999995 66.30578600000035
      CHANNELS 3 Zrotation Xrotation Yrotation
      JOINT right_upper_arm
      {
        OFFSET 164.513184 1.5733030000000099 4.892333999999892
        CHANNELS 3 Zrotation Xrotation Yrotation
        JOINT right_forearm
        {
          OFFSET 260.742027 48.718444999999974 144.35229500000014
          CHANNELS 3 Zrotation Xrotation Yrotation
          JOINT right_hand
          {
            OFFSET 287.85150899999996 -44.57171600000015 13.96813899999961
            CHANNELS 3 Zrotation Xrotation Yrotation
            End Site
            {
              OFFSET 0.0 0.0 0.0
            }
          }
        }
      }
    }
  }
}
MOTION
Frames: 19
Frame Time: 0.01
-245.77961882648034 257.3045375014657 1645.7614101815304 3.0023584385335362 -4.841080740421005 -3.618330598266603 0.1802273522510778 -1.78836188475142 -0.14847768013204202 -1.989764526158604 1.6433900847804785 1.3845108657905354 0.0 0.0 0.0 5.001568285859162 -1.279388293384663 11.055255210642805 7.732603103638073 -10.092106824427663 -71.18085611361687 -17.700931883307053 -1.641359647759926 -19.60051032067014 0.0 0.0 0.0 -2.491460013177361 0.009307058102774563 -5.313935026296991 -13.694367465773055 2.936487315980014 74.90039622864603 17.164651928435386 -0.7093073428359349 30.540600328668432 0.0 0.0 0.0
-245.67939613973277 256.8380626989761 1646.0519552988285 3.028041645211194 -4.988266940459036 -3.6049357238618325 0.17992225595762792 -1.7868618455428118 -0.14831772363588716 -1.98479032230918 1.6793049506260969 1.3781804857225328 0.0 0.0 0.0 5.020149134134491 -1.2719435222284363 11.014070359970937 7.829117818626498 -9.917752599353136 -71.16877783946066 -17.62135836367522 -1.6230911292636039 -19.62095402309838 0.0 0.0 0.0 -2.5551196202564164 0.00835223855337884 -5.305688135054193 -13.8094147614134 3.2027702603364316 74.82456758820337 16.998389049068283 -0.6551372025197377 30.577863569543446 0.0 0.0 0.0
-245.57810912696485 256.3830398108046 1646.3325308404528 3.0533543522998543 -5.135984635997934 -3.5930615828904093 0.17902079420274047 -1.7840689045559295 -0.14794751545859824 -1.9798805318647021 1.7152998722225241 1.3718927054334473 0.0 0.0 0.0 5.040219671304827 -1.2647927911206525 10.974901922947547 7.9241643106414 -9.746514497301096 -71.15787354233319 -17.541837238815308 -1.6047394719687436 -19.638980158214178 0.0 0.0 0.0 -2.6182291776204654 0.0074237476329646074 -5.296832320642689 -13.924421791893494 3.467895805706404 74.7486860235636 16.830772886350903 -0.6004241452762858 30.612531616168393 0.0 0.0 0.0
-245.47712840674964 255.93865263892346 1646.603327103504 3.0782153047235847 -5.2839290137454835 -3.5838949544520675 0.17732851924515997 -1.7801077666995186 -0.14733269062102233 -1.975489888184784 1.7511792851998151 1.3660023413621418 0.0 0.0 0.0 5.062045465924394 -1.258161161893812 10.939109325360915 8.017835092481207 -9.57838047497991 -71.14859758539706 -17.4624015583591 -1.5863155008917906 -19.654501515032827 0.0 0.0 0.0 -2.680077079794616 0.0065539295925438395 -5.285938066365846 -14.039224005221692 3.731523936027232 74.672576466059 16.66192109013536 -0.5452197272898617 30.644341450336963 0.0 0.0 0.0
-245.37782726126395 255.50392396459523 1646.8645229036954 3.1025943154132105 -5.431708783543364 -3.578630660578675 0.17461496510289157 -1.7751987833140788 -0.14643709751854184 -1.972078858687336 1.7867471811050994 1.3608682922317945 0.0 0.0 0.0 5.085893519190587 -1.252274146761157 10.908048960409388 8.110211161272602 -9.413336478482389 -71.14135776995406 -17.38311835381121 -1.5678391555156472 -19.667461029782597 0.0 0.0 0.0 -2.7399684237374107 0.005778171463521893 -5.27153456098138 -14.153646869016619 3.9932954982673956 74.59602977076278 16.491982278204247 -0.4895873751841874 30.673058152974967 0.0 0.0 0.0
-245.28154123277696 255.07773270708987 1647.1162929166255 3.1265144162773777 -5.578859158775047 -3.5784234050952617 0.17061952739299283 -1.7696522667373353 -0.14522372246454643 -1.970095666873782 1.8218163009207706 1.3568394166768443 0.0 0.0 0.0 5.112020973810453 -1.2473494338362456 10.883022336504684 8.201362560953157 -9.251363479860226 -71.13650703033511 -17.30408556381304 -1.5493387318065708 -19.67783477690854 0.0 0.0 0.0 -2.7972477933833995 0.005133451742454811 -5.2521654432783205 -14.267508181221217 4.252835740204834 74.51881073574842 16.321137820493934 -0.43360270901599723 30.698480303401897 0.0 0.0 0.0
-245.18952765262554 254.65883472316608 1647.3588153459618 3.150050747586758 -5.72486108008139 -3.5843381229497764 0.16506004910453306 -1.7638565697119442 -0.14365579337636555 -1.9699579493549433 1.856217106661799 1.3542401751690147 0.0 0.0 0.0 5.1406624116074076 -1.2435883882377794 10.865222745907547 8.291349289008762 -9.092434241556665 -71.1343357425728 -17.225427703833976 -1.5308497908640353 -19.685634595265867 0.0 0.0 0.0 -2.851321703830732 0.004656550421603298 -5.2264468555363095 -14.380620105558643 4.509757390989663 74.44066752565055 16.1496031533336 -0.37735364842632985 30.720444432779683 0.0 0.0 0.0
-245.10292669223517 254.2458865937099 1647.5922788079029 3.1733261137042645 -5.869165562401477 -3.5973018563983614 0.15764377570227955 -1.7582604611792152 -0.14169801561714465 -1.9720350827396216 1.8898058999641822 1.3533568538531264 0.0 0.0 0.0 5.172016575710743 -1.2411677972578947 10.855683574433703 8.38022253458124 -8.936509915288134 -71.13506495317931 -17.147290426593475 -1.5124137678670495 -19.69091013634649 0.0 0.0 0.0 -2.901679630289501 0.0043820511202781205 -5.193124602594282 -14.492790986672844 4.763663492946844 74.36134226594739 15.97762835802933 -0.3209402260577533 30.738828355693396 0.0 0.0 0.0
-245.02272569230263 253.83747155709082 1647.8168873499442 3.196503317183546 -6.011221364225508 -3.6180603877670863 0.1480801668042155 -1.7533509870266055 -0.13931789949240445 -1.9766322906292346 1.9224714683773954 1.3544252410163522 0.0 0.0 0.0 5.206233506741454 -1.2402323623081926 10.855231640917655 8.468026207412505 -8.783536619335788 -71.13884082378748 -17.069834166831317 -1.4940763291975685 -19.693750129251605 0.0 0.0 0.0 -2.9479124825893415 0.004340309331917201 -5.151126973453111 -14.603827045747234 5.014150276811222 74.28058251783173 15.805497745920727 -0.2644740380659245 30.753553243289957 0.0 0.0 0.0
-244.94972847100706 253.43212666638195 1648.0328627157135 3.2197745579954695 -6.150503731839682 -3.647142688014438 0.1360949483009058 -1.74962850966825 -0.1364871537339304 -1.9839775993983852 1.9541397280000725 1.3576205877721506 0.0 0.0 0.0 5.243403122179133 -1.2408884201070374 10.864448839296925 8.554798695651552 -8.633442166377863 -71.1457305777192 -16.993227118786816 -1.475885541308777 -19.69428267178714 0.0 0.0 0.0 -2.9897274630550212 0.004555581881507909 -5.0996099203690894 -14.713534080039599 5.26081040077854 74.19815327804685 15.633528214506862 -0.208077271710643 30.764584349727976 0.0 0.0 0.0
-244.88453102145237 253.02837029353918 1648.2404432819126 3.2433483586511764 -6.286541897216196 -3.6848357000429806 0.12144474415283137 -1.74758082935671 -0.13318312938637084 -1.9942125480161903 1.9847759823482864 1.3630505507472148 0.0 0.0 0.0 5.283546171209934 -1.2431993005966424 10.883644840274828 8.640574780450388 -8.486133121026933 -71.15572021659307 -16.917637844759998 -1.4578899290571692 -19.692674383929226 0.0 0.0 0.0 -3.02695845141405 0.005044506237306984 -5.037991808360969 -14.82171929586488 5.503236861836643 74.11384907715392 15.46206619574182 -0.15188127053546058 30.771930365160564 0.0 0.0 0.0
-244.82750458255742 252.6247292287036 1648.4398794661467 3.2674346498382922 -6.4189433004319145 -3.7311711807400987 0.10393160795771232 -1.7476581825438338 -0.1293902940144896 -2.0073872951198863 2.014384604437124 1.3707516056147375 0.0 0.0 0.0 5.326608287460504 -1.2471826146118887 10.912842788020136 8.725387632934568 -8.34149235281491 -71.1687142313337 -16.8432278387069 -1.4401365091526108 -19.68912831004658 0.0 0.0 0.0 -3.059571337792957 0.005815085220447171 -4.965975738716203 -14.928193403108452 5.741027856292316 74.02750567871023 15.29148311686475 -0.09602463080337663 30.775641450143933 0.0 0.0 0.0
-244.77878661896807 252.21976476834433 1648.6314257874474 3.2922288055816 -6.54741303035417 -3.785925396048881 0.08341676656965957 -1.7502505984235535 -0.12510169952088568 -2.023460438271129 2.0430061498547 1.3806891618794987 0.0 0.0 0.0 5.372457587679088 -1.2528096284750723 10.951778929330208 8.809270818032848 -8.199377227713176 -71.18453745990047 -16.770144363276422 -1.4226688842534776 -19.683880527180026 0.0 0.0 0.0 -3.087664023482952 0.006866278250100114 -4.8835583892112835 -15.032773090019047 5.973792814917374 73.93901082553465 15.122169424766248 -0.040650864403732 30.77580610484568 0.0 0.0 0.0
-244.73827982846964 251.81209734820183 1648.8153301197412 3.3178955175717566 -6.671767558484532 -3.8486314656857545 0.059832909731275544 -1.7556687291412452 -0.12032039060245818 -2.042303492684699 2.070712113699132 1.3927613217707664 0.0 0.0 0.0 5.420885971275997 -1.260006736474366 10.999916036712744 8.892260226993502 -8.05961855901616 -71.20293915662246 -16.698513849253274 -1.405525476438037 -19.677195495194635 0.0 0.0 0.0 -3.1114611160070336 0.008188232097183992 -4.791025325527602 -15.13528397021381 6.2011597470987825 73.84831346009013 14.954527361570477 0.014094294974899673 30.772547122311515 0.0 0.0 0.0
-244.7056589225287 251.4004294810476 1648.9918209765456 3.344553415307906 -6.791942357911131 -3.9186031328010005 0.03319443602407556 -1.764128957302118 -0.11506069626913676 -2.0637095933685696 2.0975977423548704 1.4068059274142233 0.0 0.0 0.0 5.471613988110823 -1.2686588905124332 11.056469399034787 8.9743958618376 -7.922020408166613 -71.22359924022803 -16.62843610126879 -1.3887379672922695 -19.66936026387364 0.0 0.0 0.0 -3.1313036585307814 0.009763111422620213 -4.688933767226947 -15.235564044928799 6.422783891728612 73.7554308730384 14.788962792258713 0.06806583321255955 30.76601694462708 0.0 0.0 0.0
-244.6803846056481 250.98356697751638 1649.161093867108 3.3722612720413845 -6.907993406424222 -3.994967783840826 0.003605191044105246 -1.7757433462869525 -0.10934935377729547 -2.0874056225114734 2.123773477191561 1.4226102595808767 0.0 0.0 0.0 5.524298871174082 -1.2786146987394673 11.120443144322735 9.055723409836572 -7.786360768942612 -71.24613657310753 -16.55997949997411 -1.372329997639818 -19.660677732646285 0.0 0.0 0.0 -3.147634527806793 0.011566423075432855 -4.578084735612796 -15.333467661472056 6.6383575150742775 73.66045329360288 14.625876450328953 0.12112251956219597 30.75639277231972 0.0 0.0 0.0
-244.66172392256888 250.56043856601616 1649.3232978454944 3.4010065258415327 -7.020092874540598 -4.076705837032992 -0.028736637363818616 -1.7905148013846182 -0.10322642122157684 -2.113066685705861 2.1493557142835127 1.4399225366687114 0.0 0.0 0.0 5.578545104581332 -1.2896927854388434 11.190673893636898 9.136295572409722 -7.652393090604478 -71.27011900281812 -16.493177340247016 -1.3563161659450127 -19.651459233535437 0.0 0.0 0.0 -3.1609803650354924 0.013568679148597565 -4.45948720973555 -15.428869887114578 6.847620550428101 73.56354551447555 14.46565497832011 0.17312996980107803 30.74387177331084 0.0 0.0 0.0
-244.64877595222393 250.1301140138012 1649.4785233266243 3.430696743380672 -7.128519515471351 -4.162693322922266 -0.06353672128484514 -1.8083376149789914 -0.09674592939473386 -2.140331732927402 2.174457598817439 1.4584642648692219 0.0 0.0 0.0 5.633916763449378 -1.3016889412769175 11.265878399716986 9.216173133236385 -7.519848537965049 -71.29507480191809 -16.428025405930597 -1.3407013526388645 -19.642016755340574 0.0 0.0 0.0 -3.1719310385532737 0.015737219725986448 -4.334317229771848 -15.52167116532415 7.050371661308077 73.46494524798344 14.308662111794105 0.22396359996172638 30.72866670434334 0.0 0.0 0.0
-244.64050169968388 249.69182071723128 1649.6267920784733 3.4611545810631923 -7.233644430914095 -4.251744639432055 -0.10040612265742241 -1.8290033509496322 -0.08997620343354057 -2.168819167149221 2.1991805352026788 1.4779425277289804 0.0 0.0 0.0 5.689950846922881 -1.3143835965719575 11.344701949051275 9.295425749828349 -7.3884388817477875 -71.32050509737577 -16.364480848501096 -1.3254803868179625 -19.632655126769222 0.0 0.0 0.0 -3.18111767130867 0.01803801866232598 -4.2038747876114275 -15.611802084588707 7.246479242624343 73.36495804698318 14.155230308674401 0.2735113810731451 30.711002197635917 0.0 0.0 0.0
